<?xml version="1.0" encoding="UTF-8" standalone="no"?>
<!-- Created with Inkscape (http://www.inkscape.org/) -->

<svg
   width="255.22639mm"
   height="64.200089mm"
   viewBox="0 0 255.22639 64.200089"
   version="1.1"
   id="svg1"
   xmlns:xlink="http://www.w3.org/1999/xlink"
   xmlns="http://www.w3.org/2000/svg"
   xmlns:svg="http://www.w3.org/2000/svg"
   xmlns:rdf="http://www.w3.org/1999/02/22-rdf-syntax-ns#"
   xmlns:cc="http://creativecommons.org/ns#"
   xmlns:dc="http://purl.org/dc/elements/1.1/">
  <title
     id="title2">Just Shoot 7 Logo</title>
  <defs
     id="defs1">
    <linearGradient
       id="linearGradient9">
      <stop
         style="stop-color:#23afb6;stop-opacity:1;"
         offset="0"
         id="stop9" />
      <stop
         style="stop-color:#abe5ef;stop-opacity:1;"
         offset="1"
         id="stop10" />
    </linearGradient>
    <linearGradient
       id="linearGradient7">
      <stop
         style="stop-color:#8a8a8a;stop-opacity:1;"
         offset="0"
         id="stop7" />
      <stop
         style="stop-color:#e5e5e5;stop-opacity:1;"
         offset="1"
         id="stop8" />
    </linearGradient>
    <linearGradient
       id="linearGradient5">
      <stop
         style="stop-color:#8a8a8a;stop-opacity:1;"
         offset="0"
         id="stop6" />
      <stop
         style="stop-color:#e5e5e5;stop-opacity:1;"
         offset="1"
         id="stop5" />
    </linearGradient>
    <linearGradient
       xlink:href="#linearGradient5"
       id="linearGradient6"
       x1="146.25157"
       y1="102.70714"
       x2="146.25157"
       y2="74.080902"
       gradientUnits="userSpaceOnUse" />
    <linearGradient
       xlink:href="#linearGradient7"
       id="linearGradient8"
       x1="115.619"
       y1="137.10004"
       x2="115.619"
       y2="108.46875"
       gradientUnits="userSpaceOnUse" />
    <linearGradient
       xlink:href="#linearGradient9"
       id="linearGradient10"
       x1="241.84569"
       y1="137.09999"
       x2="241.84569"
       y2="75.101433"
       gradientUnits="userSpaceOnUse" />
  </defs>
  <g
     id="layer2"
     style="display:inline"
     transform="translate(-24.546688,-72.899957)">
    <path
       d="m 68.248543,102.70714 v -7.704012 h 10.272013 q 4.356434,0 6.236579,-1.559144 1.880146,-1.605002 1.880146,-5.09015 V 72.899958 h 8.070867 v 16.233449 q 0,6.970294 -3.714433,10.272013 -3.668576,3.30172 -11.647729,3.30172 z m 44.573197,0 q -2.98072,0 -5.45701,-0.91715 -2.47629,-0.963 -4.31058,-2.659714 -1.83428,-1.696716 -2.84314,-4.035433 -1.008861,-2.384575 -1.008861,-5.227721 V 72.899958 h 8.070871 v 16.37102 q 0,2.613861 1.605,4.173006 1.605,1.559144 4.08129,1.559144 h 6.32829 q 2.47629,0 4.08129,-1.559144 1.60501,-1.559145 1.60501,-4.173006 v -16.37102 h 8.07086 v 16.967164 q 0,2.843146 -1.00886,5.227721 -1.00885,2.338717 -2.84314,4.035433 -1.83429,1.696714 -4.35644,2.659714 -2.47628,0.91715 -5.41115,0.91715 z m 24.25839,0 v -7.704012 h 22.2866 q 0.87128,0 1.42157,-0.504429 0.55029,-0.550286 0.55029,-1.513287 0,-0.963002 -0.55029,-1.513288 -0.55029,-0.550286 -1.42157,-0.550286 h -13.11516 q -2.06358,0 -3.85201,-0.642001 -1.74257,-0.687858 -3.02657,-1.834288 -1.23815,-1.192288 -1.97186,-2.843147 -0.68786,-1.650859 -0.68786,-3.668576 0,-2.017717 0.68786,-3.668576 0.73371,-1.696716 1.97186,-2.889004 1.284,-1.192287 3.02657,-1.834288 1.78843,-0.642 3.85201,-0.642 h 22.65345 v 7.658152 h -22.2866 q -0.87128,0 -1.42157,0.504429 -0.50443,0.50443 -0.50443,1.467431 0,0.917144 0.50443,1.46743 0.55029,0.550287 1.42157,0.550287 h 13.11516 q 2.10943,0 3.85201,0.687858 1.74257,0.642 3.02657,1.834288 1.28401,1.192287 1.97186,2.889003 0.73372,1.65086 0.73372,3.622719 0,2.063574 -0.73372,3.760291 -0.68785,1.650859 -1.97186,2.889004 -1.284,1.19229 -3.02657,1.83429 -1.74258,0.642 -3.85201,0.642 z m 45.53614,0 V 80.55811 H 171.6564 v -7.658152 h 29.94475 v 7.658152 h -10.95987 v 22.14903 z"
       id="path10"
       style="font-size:45.8572px;line-height:0.75;font-family:'Good Timing';-inkscape-font-specification:'Good Timing, Normal';text-align:end;text-anchor:end;fill:url(#linearGradient6);fill-opacity:1;stroke-width:1.71964" />
    <path
       d="m 24.913544,137.10004 v -7.70401 h 22.286599 q 0.871287,0 1.421574,-0.50443 0.550286,-0.55029 0.550286,-1.51329 0,-0.963 -0.550286,-1.51329 -0.550287,-0.55028 -1.421574,-0.55028 H 34.084984 q -2.063574,0 -3.852005,-0.642 -1.742574,-0.68786 -3.026575,-1.83429 -1.238145,-1.19229 -1.97186,-2.84315 -0.687858,-1.65086 -0.687858,-3.66857 0,-2.01772 0.687858,-3.66858 0.733715,-1.69672 1.97186,-2.889 1.284001,-1.19229 3.026575,-1.83429 1.788431,-0.642 3.852005,-0.642 h 22.653457 v 7.65815 H 34.451842 q -0.871287,0 -1.421574,0.50443 -0.504429,0.50443 -0.504429,1.46743 0,0.91714 0.504429,1.46743 0.550287,0.55029 1.421574,0.55029 h 13.115159 q 2.109431,0 3.852005,0.68786 1.742573,0.642 3.026575,1.83428 1.284002,1.19229 1.97186,2.88901 0.733715,1.65086 0.733715,3.62272 0,2.06357 -0.733715,3.76029 -0.687858,1.65086 -1.97186,2.889 -1.284002,1.19229 -3.026575,1.83429 -1.742574,0.642 -3.852005,0.642 z m 58.513735,0 V 125.54402 H 71.77955 v -7.29129 h 11.647729 v -10.95987 h 8.02501 v 29.80718 z m -22.332457,0 v -29.80718 h 8.02501 v 29.80718 z m 55.074468,-7.70401 q 1.55914,0 2.889,-0.50443 1.32986,-0.55029 2.29286,-1.46743 0.963,-0.963 1.46743,-2.29286 0.55029,-1.32986 0.55029,-2.93486 0,-1.605 -0.55029,-2.93486 -0.50443,-1.32986 -1.46743,-2.29286 -0.963,-0.963 -2.29286,-1.46743 -1.32986,-0.55029 -2.889,-0.55029 h -5.41115 q -1.55915,0 -2.88901,0.55029 -1.32986,0.50443 -2.29286,1.46743 -0.963,0.963 -1.51328,2.29286 -0.55029,1.32986 -0.55029,2.93486 0,1.605 0.50443,2.93486 0.55029,1.32986 1.51329,2.29286 0.963,0.91714 2.29286,1.46743 1.32986,0.50443 2.93486,0.50443 z m -4.86087,7.70401 q -3.43929,0 -6.32829,-1.05472 -2.889,-1.10057 -4.998435,-3.02657 -2.063574,-1.97186 -3.255861,-4.72329 -1.192287,-2.75144 -1.192287,-6.09901 0,-3.34758 1.192287,-6.05315 1.192287,-2.75143 3.255861,-4.72329 2.109435,-1.97186 4.998435,-3.02658 2.889,-1.10057 6.32829,-1.10057 h 4.31058 q 3.39343,0 6.28244,1.10057 2.889,1.05472 4.95257,3.02658 2.10944,1.97186 3.30172,4.72329 1.19229,2.70557 1.19229,6.05315 0,3.34757 -1.19229,6.09901 -1.19228,2.75143 -3.30172,4.72329 -2.06357,1.926 -4.95257,3.02657 -2.88901,1.05472 -6.28244,1.05472 z m 43.79359,-7.70401 q 1.55915,0 2.889,-0.50443 1.32986,-0.55029 2.29286,-1.46743 0.96301,-0.963 1.46744,-2.29286 0.55028,-1.32986 0.55028,-2.93486 0,-1.605 -0.55028,-2.93486 -0.50443,-1.32986 -1.46744,-2.29286 -0.963,-0.963 -2.29286,-1.46743 -1.32985,-0.55029 -2.889,-0.55029 h -5.41115 q -1.55914,0 -2.889,0.55029 -1.32986,0.50443 -2.29286,1.46743 -0.963,0.963 -1.51329,2.29286 -0.55029,1.32986 -0.55029,2.93486 0,1.605 0.50443,2.93486 0.55029,1.32986 1.51329,2.29286 0.963,0.91714 2.29286,1.46743 1.32986,0.50443 2.93486,0.50443 z m -4.86086,7.70401 q -3.43929,0 -6.3283,-1.05472 -2.889,-1.10057 -4.99843,-3.02657 -2.06357,-1.97186 -3.25586,-4.72329 -1.19229,-2.75144 -1.19229,-6.09901 0,-3.34758 1.19229,-6.05315 1.19229,-2.75143 3.25586,-4.72329 2.10943,-1.97186 4.99843,-3.02658 2.88901,-1.10057 6.3283,-1.10057 h 4.31057 q 3.39344,0 6.28244,1.10057 2.889,1.05472 4.95258,3.02658 2.10943,1.97186 3.30172,4.72329 1.19228,2.70557 1.19228,6.05315 0,3.34757 -1.19228,6.09901 -1.19229,2.75143 -3.30172,4.72329 -2.06358,1.926 -4.95258,3.02657 -2.889,1.05472 -6.28244,1.05472 z m 32.37513,0 v -22.14903 h -10.95987 v -7.65815 h 29.94475 v 7.65815 h -10.95987 v 22.14903 z"
       id="path11"
       style="font-size:45.8572px;line-height:0.75;font-family:'Good Timing';-inkscape-font-specification:'Good Timing, Normal';text-align:end;text-anchor:end;fill:url(#linearGradient8);fill-opacity:1;stroke-width:1.71964" />
    <path
       d="M 220.314,137.09999 255.67338,89.394466 H 210.14077 V 72.900009 h 62.91599 q 6.7163,0 6.7163,5.629844 v 3.456922 q 0,2.271692 -0.79015,4.049538 -0.69139,1.679076 -2.568,4.148306 l -34.56922,46.915371 z"
       id="text10"
       style="font-size:98.7692px;line-height:1.25;font-family:'Good Timing';-inkscape-font-specification:'Good Timing, Normal';fill:url(#linearGradient10);fill-opacity:1;stroke-width:3.70382"
       aria-label="7" />
    <text
       xml:space="preserve"
       style="font-style:normal;font-variant:normal;font-weight:500;font-stretch:normal;font-size:3.52778px;line-height:1.25;font-family:Inter;-inkscape-font-specification:'Inter, Medium';font-variant-ligatures:normal;font-variant-caps:normal;font-variant-numeric:normal;font-variant-east-asian:normal;fill:#8a8a8a;fill-opacity:1;stroke-width:0.264583"
       x="192.44801"
       y="137.10004"
       id="text7"><tspan
         id="tspan7"
         style="font-style:normal;font-variant:normal;font-weight:500;font-stretch:normal;font-size:3.52778px;font-family:Inter;-inkscape-font-specification:'Inter, Medium';font-variant-ligatures:normal;font-variant-caps:normal;font-variant-numeric:normal;font-variant-east-asian:normal;fill:#8a8a8a;fill-opacity:1;stroke-width:0.264583"
         x="192.44801"
         y="137.10004">TM</tspan></text>
  </g>
  <metadata
     id="metadata2">
    <rdf:RDF>
      <cc:Work
         rdf:about="">
        <dc:title>Just Shoot 7 Logo</dc:title>
        <dc:creator>
          <cc:Agent>
            <dc:title>Team-JustShoot7</dc:title>
          </cc:Agent>
        </dc:creator>
        <dc:language>English</dc:language>
        <dc:description>The official logo of Just Shoot 7, an FPS game for VR</dc:description>
        <dc:rights>
          <cc:Agent>
            <dc:title>© Team-JustShoot7</dc:title>
          </cc:Agent>
        </dc:rights>
      </cc:Work>
    </rdf:RDF>
  </metadata>
</svg>
